<svg xmlns="http://www.w3.org/2000/svg" fill="none" viewBox="0 0 96 96" id="Express--Streamline-Svg-Logos">
  <desc>
    Express Streamline Icon: https://streamlinehq.com
  </desc>
  <path fill="#222222" d="M1.61178 55.6167V45.1553H14.6733v-0.6118H1.61178v-9.5438H15.4992v-0.6118H1v21.8406h14.6215v-0.6118H1.61178Zm25.78652 -15.111 -5.4142 7.1273 -5.2919 -7.1273h-0.7954l5.7202 7.5861 -6.2708 8.1367h0.7342l5.9037 -7.6779 5.9342 7.6779h0.7647l-6.3013 -8.1367 5.7507 -7.5861h-0.7341Zm3.1201 21.1065v-9.7885h0.0612c0.367 1.4275 1.091 2.5745 2.1718 3.4412 1.0808 0.8667 2.4573 1.3001 4.1295 1.3001 1.0808 0 2.0393 -0.2193 2.8754 -0.6577 0.8361 -0.4384 1.5345 -1.0349 2.0953 -1.7895 0.5608 -0.7545 0.9891 -1.6314 1.2847 -2.6306 0.2957 -0.9993 0.4436 -2.0495 0.4436 -3.1507 0 -1.1828 -0.153 -2.2738 -0.4588 -3.273 -0.3059 -0.9992 -0.7495 -1.8659 -1.3307 -2.6001 -0.5812 -0.7341 -1.2847 -1.3051 -2.1106 -1.7129 -0.8259 -0.4079 -1.7589 -0.6118 -2.7989 -0.6118 -0.7953 0 -1.5345 0.1172 -2.2177 0.3517 -0.6832 0.2346 -1.2898 0.5659 -1.82 0.9942 -0.5303 0.4282 -0.9891 0.9329 -1.3766 1.5141 -0.3874 0.5812 -0.6831 1.2185 -0.887 1.9119h-0.0612v-4.4049h-0.6118v21.1065h0.6118Zm6.3625 -5.6284c-1.9169 0 -3.4566 -0.6577 -4.6189 -1.973 -1.1624 -1.3154 -1.7436 -3.2068 -1.7436 -5.6743 0 -1.0196 0.1427 -1.9883 0.4282 -2.9059 0.2855 -0.9177 0.6985 -1.7232 1.2389 -2.4166 0.5404 -0.6933 1.2082 -1.2439 2.0036 -1.6518 0.7953 -0.4078 1.6926 -0.6117 2.6918 -0.6117 1.0196 0 1.9118 0.2039 2.6765 0.6117 0.7648 0.4079 1.3969 0.9636 1.8966 1.6671 0.4996 0.7036 0.8768 1.5091 1.1317 2.4166 0.255 0.9074 0.3824 1.871 0.3824 2.8906 0 0.9177 -0.1172 1.8303 -0.3518 2.7377 -0.2345 0.9075 -0.5964 1.7232 -1.0859 2.4472 -0.4894 0.7239 -1.1165 1.3153 -1.8812 1.7741 -0.7647 0.4589 -1.6875 0.6883 -2.7683 0.6883Zm10.0638 0.2447v-8.9014c0 -0.8565 0.1223 -1.6926 0.367 -2.5083 0.2448 -0.8157 0.622 -1.5346 1.1318 -2.1565 0.5099 -0.622 1.1573 -1.1114 1.9424 -1.4683 0.7852 -0.3569 1.7181 -0.5047 2.7989 -0.4435v-0.6118c-0.938 -0.0204 -1.7588 0.0815 -2.4624 0.3059 -0.7035 0.2243 -1.3102 0.5302 -1.82 0.9176 -0.5098 0.3875 -0.9177 0.8412 -1.2236 1.3612 -0.3059 0.5201 -0.5302 1.0758 -0.6729 1.6671h-0.0612v-3.8848h-0.6118v15.7228h0.6118Zm7.0049 -7.739h13.1532c0.0408 -1.0808 -0.0662 -2.1209 -0.3212 -3.1201 -0.2549 -0.9993 -0.6627 -1.8863 -1.2235 -2.6613 -0.5608 -0.7749 -1.2847 -1.3968 -2.1718 -1.8659 -0.8871 -0.469 -1.9424 -0.7035 -3.166 -0.7035 -0.8769 0 -1.7334 0.1835 -2.5695 0.5506 -0.8361 0.367 -1.5702 0.9023 -2.2024 1.6059 -0.6322 0.7035 -1.142 1.5651 -1.5294 2.5848 -0.3875 1.0196 -0.5812 2.182 -0.5812 3.4871 0 1.1624 0.1325 2.2483 0.3976 3.2577 0.2651 1.0095 0.673 1.8864 1.2236 2.6307s1.2592 1.3204 2.1259 1.7283c0.8667 0.4078 1.9118 0.6016 3.1354 0.5812 1.7946 0 3.3036 -0.5047 4.5272 -1.5142 1.2235 -1.0094 1.9475 -2.4318 2.1718 -4.2672h-0.6118c-0.2651 1.7334 -0.9431 3.0334 -2.0342 3.9001 -1.091 0.8667 -2.4624 1.3001 -4.1142 1.3001 -1.1216 0 -2.0698 -0.1938 -2.8447 -0.5812 -0.775 -0.3875 -1.4071 -0.9177 -1.8966 -1.5906 -0.4894 -0.673 -0.8514 -1.4632 -1.0859 -2.3707 -0.2345 -0.9075 -0.3619 -1.8914 -0.3823 -2.9518Zm12.5415 -0.6118H53.9496c0.0611 -1.1012 0.2651 -2.0903 0.6117 -2.9671 0.3467 -0.8769 0.8004 -1.6264 1.3613 -2.2483 0.5608 -0.622 1.2133 -1.0961 1.9576 -1.4224 0.7444 -0.3263 1.5448 -0.4894 2.4013 -0.4894 1.0196 0 1.9169 0.1886 2.6918 0.5658 0.7749 0.3773 1.4224 0.8922 1.9424 1.5448 0.52 0.6526 0.9126 1.4122 1.1777 2.2789 0.2651 0.8667 0.3977 1.7792 0.3977 2.7377Zm13.3062 -2.7224h0.6117c0 -1.7538 -0.5098 -3.0283 -1.5294 -3.8237 -1.0196 -0.7953 -2.4063 -1.1929 -4.1601 -1.1929 -0.9789 0 -1.8048 0.1223 -2.4777 0.367 -0.673 0.2448 -1.2236 0.5608 -1.6518 0.9483 -0.4283 0.3875 -0.7342 0.8157 -0.9177 1.2847 -0.1835 0.4691 -0.2753 0.9177 -0.2753 1.346 0 0.8564 0.153 1.5396 0.4588 2.0494 0.3059 0.5098 0.7852 0.9075 1.4377 1.193 0.4487 0.2039 0.9585 0.3874 1.5295 0.5506 0.571 0.1631 1.2337 0.3365 1.9883 0.52 0.6729 0.1631 1.3357 0.3263 1.9882 0.4894 0.6526 0.1632 1.2287 0.3824 1.7283 0.6577 0.4996 0.2753 0.9075 0.6271 1.2236 1.0553 0.3161 0.4283 0.4741 0.9891 0.4741 1.6824 0 0.673 -0.158 1.244 -0.4741 1.713 -0.3161 0.469 -0.7189 0.8514 -1.2083 1.1471 -0.4894 0.2957 -1.0349 0.5098 -1.6365 0.6423 -0.6016 0.1326 -1.1879 0.1989 -1.7589 0.1989 -1.8557 0 -3.2781 -0.413 -4.2671 -1.2389 -0.9891 -0.8259 -1.4836 -2.1259 -1.4836 -3.9001h-0.6118c0 1.9781 0.5353 3.426 1.6059 4.3437 1.0707 0.9176 2.6562 1.3765 4.7566 1.3765 0.673 0 1.3511 -0.0765 2.0342 -0.2295 0.6832 -0.1529 1.2949 -0.4027 1.8353 -0.7494 0.5405 -0.3467 0.9789 -0.7953 1.3154 -1.3459 0.3365 -0.5506 0.5047 -1.2236 0.5047 -2.0189 0 -0.7545 -0.1479 -1.3663 -0.4435 -1.8353 -0.2957 -0.469 -0.6832 -0.8565 -1.1624 -1.1624 -0.4793 -0.3059 -1.0197 -0.5455 -1.6212 -0.7188 -0.6016 -0.1734 -1.2083 -0.3416 -1.8201 -0.5048 -0.8565 -0.2243 -1.6059 -0.418 -2.2483 -0.5811 -0.6424 -0.1632 -1.2388 -0.3569 -1.7894 -0.5812 -0.5303 -0.2244 -0.9534 -0.5455 -1.2695 -0.9636 -0.3161 -0.418 -0.4741 -1.0145 -0.4741 -1.7894 0 -0.1428 0.0408 -0.3977 0.1223 -0.7648 0.0816 -0.367 0.2753 -0.7392 0.5812 -1.1165 0.3059 -0.3772 0.775 -0.7137 1.4071 -1.0094 0.6322 -0.2957 1.4989 -0.4435 2.6001 -0.4435 0.7545 0 1.4428 0.0815 2.0647 0.2447 0.622 0.1631 1.1573 0.4231 1.606 0.78 0.4486 0.3569 0.7953 0.8106 1.04 1.3612 0.2447 0.5506 0.3671 1.2235 0.3671 2.0189Zm14.1627 0h0.6118c0 -1.7538 -0.5099 -3.0283 -1.5295 -3.8237 -1.0196 -0.7953 -2.4063 -1.1929 -4.1601 -1.1929 -0.9789 0 -1.8047 0.1223 -2.4777 0.367 -0.673 0.2448 -1.2236 0.5608 -1.6518 0.9483 -0.4283 0.3875 -0.7342 0.8157 -0.9177 1.2847 -0.1835 0.4691 -0.2753 0.9177 -0.2753 1.346 0 0.8564 0.153 1.5396 0.4588 2.0494 0.3059 0.5098 0.7852 0.9075 1.4377 1.193 0.4487 0.2039 0.9585 0.3874 1.5295 0.5506 0.571 0.1631 1.2337 0.3365 1.9883 0.52 0.6729 0.1631 1.3357 0.3263 1.9883 0.4894 0.6525 0.1632 1.2286 0.3824 1.7282 0.6577 0.4997 0.2753 0.9075 0.6271 1.2236 1.0553 0.3161 0.4283 0.4741 0.9891 0.4741 1.6824 0 0.673 -0.158 1.244 -0.4741 1.713 -0.3161 0.469 -0.7189 0.8514 -1.2083 1.1471 -0.4894 0.2957 -1.0349 0.5098 -1.6365 0.6423 -0.6016 0.1326 -1.1879 0.1989 -1.7589 0.1989 -1.8557 0 -3.2781 -0.413 -4.2671 -1.2389 -0.9891 -0.8259 -1.4836 -2.1259 -1.4836 -3.9001h-0.6118c0 1.9781 0.5353 3.426 1.606 4.3437 1.0706 0.9176 2.6561 1.3765 4.7565 1.3765 0.673 0 1.3511 -0.0765 2.0342 -0.2295 0.6832 -0.1529 1.2949 -0.4027 1.8354 -0.7494 0.5404 -0.3467 0.9788 -0.7953 1.3153 -1.3459 0.3365 -0.5506 0.5047 -1.2236 0.5047 -2.0189 0 -0.7545 -0.1478 -1.3663 -0.4435 -1.8353 -0.2957 -0.469 -0.6832 -0.8565 -1.1624 -1.1624 -0.4793 -0.3059 -1.0197 -0.5455 -1.6212 -0.7188 -0.6016 -0.1734 -1.2083 -0.3416 -1.8201 -0.5048 -0.8565 -0.2243 -1.6059 -0.418 -2.2483 -0.5811 -0.6423 -0.1632 -1.2388 -0.3569 -1.7894 -0.5812 -0.5302 -0.2244 -0.9534 -0.5455 -1.2695 -0.9636 -0.3161 -0.418 -0.4741 -1.0145 -0.4741 -1.7894 0 -0.1428 0.0408 -0.3977 0.1223 -0.7648 0.0816 -0.367 0.2753 -0.7392 0.5812 -1.1165 0.3059 -0.3772 0.775 -0.7137 1.4071 -1.0094 0.6322 -0.2957 1.4989 -0.4435 2.6001 -0.4435 0.7545 0 1.4428 0.0815 2.0648 0.2447 0.6219 0.1631 1.1572 0.4231 1.6059 0.78 0.4486 0.3569 0.7953 0.8106 1.04 1.3612 0.2447 0.5506 0.3671 1.2235 0.3671 2.0189Z" stroke-width="1"></path>
</svg>