<svg xmlns="http://www.w3.org/2000/svg" fill="none" viewBox="0 0 96 96" id="Flask--Streamline-Svg-Logos">
  <desc>
    Flask Streamline Icon: https://streamlinehq.com
  </desc>
  <path fill="#000000" d="M33.2782 59.1311c-2.787 -2.1927 -5.7611 -4.2939 -7.793 -7.2546 -4.2767 -5.2209 -7.5685 -11.2643 -9.8191 -17.6164 -1.3609 -4.1307 -1.8266 -8.5591 -3.5818 -12.5295 -1.8338 -2.8847 0.3158 -6.0358 3.4751 -6.9522 1.4055 -0.2709 3.8785 -1.5979 0.8934 -0.6485 -2.6769 1.963 -2.9348 -1.7835 -0.1904 -2.0208 1.873 -0.2484 2.5625 -1.7811 1.9213 -3.16075 -2.0113 -1.31215 4.8753 -2.75159 1.4098 -4.7088C15.9858 0.345689 24.642 -0.4037 22.5058 4.01894c-0.5106 3.40048 6.0507 -0.62449 4.527 3.30286 1.5481 1.8864 5.7951 0.43021 5.6884 3.0751 2.2544 0.155 3.0282 2.0505 5.1423 2.1965 2.1946 0.9905 6.1689 1.7701 6.9144 4.2412 -2.1754 1.7218 -7.2115 -3.5569 -7.4546 1.2098 0.658 7.0431 0.49 14.2982 3.066 21.0049 1.2183 4.0604 4.1738 7.2565 6.8411 10.4197 2.5535 3.097 6.0119 5.2787 9.5373 7.1144 3.0918 1.4581 6.4248 2.4242 9.7951 3.032 1.3663 -1.0451 3.7795 -4.9313 5.9104 -3.2938 0.1029 1.8433 -4.2297 3.8508 -0.2033 3.6469 2.3663 -0.7139 4.0058 1.8281 5.9535 -0.4656 1.7945 2.1257 7.4584 -1.3571 6.1817 2.9875 -1.727 1.1141 -4.2451 0.4408 -5.9741 1.974 -2.8506 -1.4246 -5.1203 1.2729 -8.2772 0.9327 -3.5048 0.6278 -7.0718 0.8805 -10.625 0.8857 -5.8305 -0.4598 -11.784 -0.6541 -17.3302 -2.6841 -3.1253 -0.9082 -6.1741 -2.6879 -8.9204 -4.4676Zm4.9237 2.1348c3.0506 1.3178 6.0343 2.7085 9.3783 3.1291 5.3051 0.7365 10.7839 1.873 16.1076 0.8374 -2.4094 -1.0877 -4.9012 0.4226 -7.3015 -0.7776 -2.8784 0.6188 -5.9683 -0.1588 -8.896 -0.5422 -3.3273 -1.482 -6.9197 -2.5008 -10.0359 -4.4264 -3.8958 -1.4222 2.0132 1.8246 3.0655 2.0883 2.4338 1.3811 -2.6769 -0.7087 -3.3986 -1.2825 -2.039 -1.1442 -2.2989 -0.9049 -0.2014 0.256 0.422 0.247 0.8393 0.5068 1.282 0.7179Zm-5.8061 -4.103c2.9573 1.0953 -0.013 -2.0788 -1.3663 -1.8955 -0.6 -1.0413 -2.2936 -1.6993 -1.0992 -2.2582 -2.1476 0.746 -2.2505 -2.8358 -3.2597 -2.3233 -2.2731 -0.7178 -0.8844 -3.2603 -3.5929 -4.8227 -0.2469 -1.6452 -2.6899 -3.0713 -3.4675 -5.552 -0.3441 -1.271 -2.7611 -4.9179 -1.2767 -1.5237 1.2633 3.2675 3.4861 6.0679 5.3366 8.8625 1.4356 2.6617 3.133 5.4453 5.7482 7.1054 0.8824 0.8465 1.7328 2.1419 2.9775 2.4075Zm-8.5161 -9.3521c0.5403 0.9662 0.1024 -0.4469 0 0ZM35.9384 58.475c0.6541 -0.2933 -0.9423 -0.3699 0 0Zm1.6036 0.5853c-0.1661 -0.8078 -0.7327 0.4522 0 0Zm2.0098 0.8374c0.9552 -0.9106 -1.4748 -0.5742 0 0Zm3.4431 1.9194c0.5814 -0.858 -1.8601 -0.323 0 0Zm-6.6115 -4.6092c1.484 -0.9609 -1.9199 -0.0134 0 0Zm1.5065 0.7513c-0.0431 -0.5068 -0.5365 0.2277 0 0Zm7.5312 4.7011c1.2111 0.7647 7.0718 1.6749 3.4024 0.3139 -0.6154 0.1292 -6.8044 -1.7514 -3.4024 -0.3139Zm-11.9558 -9.3128c-0.1177 -0.5082 -1.8807 -0.5628 0 0Zm3.5048 2.0453c0.914 -0.6374 -1.8936 -0.492 0 0Zm2.9497 1.8074c1.3102 -0.4934 -2.1233 -0.4953 0 0Zm-7.8829 -5.406c1.4207 1.0896 5.7314 0.1402 2.1759 -0.6504 -1.617 -0.8618 -5.262 -1.4523 -2.7775 0.5197l0.6016 0.1307Zm9.8813 6.0305c0.5924 -1.0078 -2.4827 -0.5762 0 0Zm-3.0024 -2.3855c3.4733 0.9815 -2.9214 -2.1984 -0.8575 -0.3627l0.458 0.2076 0.3995 0.1551Zm6.0196 3.479c3.2899 0.0315 -2.9722 -0.4542 0 0ZM30.7716 49.891c-0.1292 -0.613 -0.8111 0.0507 0 0Zm19.7287 12.1486c0.0875 -1.1063 -1.0734 0.8246 0 0Zm-14.1135 -8.7108c-0.2001 -0.5833 -1.0279 -0.0244 0 0Zm-5.3032 -3.8225c1.8883 -0.1139 -2.587 -0.8317 0 0Zm-6.2827 -4.0604c-0.2354 -0.9064 -2.0544 -1.628 0 0Zm16.4928 10.4666c-0.1627 0.0856 -0.3455 -0.3948 0 0Zm10.2641 6.2994c-0.0316 -0.6039 -0.5589 0.2278 0 0ZM40.3854 54.974c0.1852 -0.7776 -1.6112 -0.2359 0 0Zm-7.6475 -4.8471c1.406 -0.1497 -2.2524 -0.9499 0 0Zm12.9358 8.038c2.1908 -0.8676 -2.1347 -0.4225 0 0Zm-6.7277 -4.5666c2.5233 0.3249 -3.0038 -1.718 -0.5551 -0.1833l0.5551 0.1833Zm8.7706 5.3926c2.3573 -1.4074 1.5797 3.2995 3.9987 0.3981 2.385 -1.7418 -2.0601 2.1534 0.8786 0.3106 2.1271 -1.4227 5.2672 0.6747 7.2508 1.3571 1.426 -0.0694 2.8133 1.2337 4.2766 0.4408 2.8153 -0.759 -5.5065 -1.1251 -3.3253 -2.4693 -2.576 0.7499 -4.4786 -0.8934 -5.7463 -2.5439 -2.8899 -0.6675 -6.2301 -2.1443 -7.6733 -4.7031 -0.5886 -0.9589 0.8489 0.1364 -0.5082 -1.4336 -1.7405 -1.5481 -2.6095 -3.3072 -3.7781 -5.1893 -1.3964 -0.7441 -1.561 -2.9368 -1.7012 -0.0727 0.0115 -1.808 -1.6859 -3.0249 -2.1008 -2.52 -0.0076 -1.7405 1.817 -0.8676 0.5403 -2.1553 -0.2747 -1.8041 -1.1796 -3.6843 -1.4509 -5.7219 -0.4221 -0.9815 -0.0598 -3.0842 -1.4428 -0.8619 -0.5029 2.3497 -0.1665 -2.886 0.6168 -1.1609 1.0279 -1.7605 -0.3704 -1.5533 -0.4263 -1.3102 0.6694 -1.4859 0.4244 -3.5948 -0.1757 -2.7909 0.357 -1.5758 0.5647 -5.7984 -0.5326 -5.049 0.6652 -1.6486 1.2619 -7.5408 -1.6284 -5.2936 -1.1701 0.0168 -3.1981 0.4245 -4.1552 0.9011 3.0038 1.6562 -0.3029 0.5982 -1.5275 0.3345 -0.1588 1.5328 -1.37 0.8709 -2.8841 0.8858 2.419 0.2991 -1.1777 2.4731 -2.5626 1.6284 -1.8022 0.86 1.5533 3.0096 0.0354 3.6747 0.1871 1.0002 -2.7592 -0.3622 -2.529 1.952 -1.7481 -0.737 -0.2393 2.7439 0.6355 1.5662 2.9741 0.8059 2.0936 2.6396 2.1682 4.3834 -0.4843 1.015 -2.3927 -2.3869 -0.4245 -2.23 -1.5533 -2.5218 -1.7174 -0.912 -3.0076 0.2599 -0.299 0.0842 3.29 1.6672 1.0375 2.4487 1.9816 0.3067 2.0395 2.0414 2.4434 3.1387 1.1906 1.2408 0.9456 -1.3705 2.3721 0.1215 -0.903 -1.3293 -4.7782 -3.7445 -1.6581 -2.9702 -0.0168 -1.3366 -0.5647 -2.4152 0.3924 -2.3894 0.948 -1.7141 -0.9925 4.2284 1.1423 2.0491 0.5905 -0.2579 0.7383 -1.716 1.8002 0.1383 1.5419 1.5179 0.557 2.6167 -1.6189 1.226 0.3886 1.3217 2.9105 1.7926 2.4358 3.8585 0.5024 1.817 1.2054 1.1475 1.8184 1.0427 0.4805 1.7648 0.7537 0.4675 0.7762 -0.3737 2.1998 0.4713 1.684 1.772 2.3736 2.6807 1.516 0.6839 -2.1702 -4.638 0.4321 -1.6002 2.7382 2.4731 1.0279 3.5048 -1.4299 3.1086 1.5553 -0.1254 2.0558 2.1032 4.002 2.0247 1.774 0.8446 2.976 4.0862 -0.0823 2.7362 -1.06 -0.957 -4.8155 -2.1366 -1.7476 -0.3177 2.8301 1.3121 5.0806 2.0955 7.8116 3.7426 1.9534 1.3945 2.798 2.9923 3.5383 3.3086 -1.6428 0.7848 -4.9495 -0.6264 -2.4936 -1.058 -1.5328 -0.2785 -3.256 -1.0542 -1.7888 0.8542 1.2485 1.0432 4.4207 0.9327 4.9911 1.0504 -0.4823 1.0618 -1.3102 1.1461 0.0187 1.2284 -1.4825 0.7905 0.4766 0.914 0.613 1.3643Zm-3.032 -8.563c-0.903 -0.9441 -1.1365 -2.7104 -0.1608 -1.1743 0.501 0.202 1.6022 2.8885 0.1608 1.1743Zm9.8756 6.2732c0.5627 -0.0373 0.0167 0.4278 0 0Zm-11.2997 -8.5874c0.3249 1.1007 -0.0359 -1.4265 0 0Zm-0.9815 -1.3198c1.4299 0.6207 -1.1365 -2.1926 0 0Zm-11.8964 -8.2097c0.6675 -0.1781 0.3292 1.1398 0 0Zm9.4683 5.1308c0.4804 1.2902 0.4091 -1.5385 0 0Zm-6.6885 -4.6509c0.9853 0.7968 -0.4709 -0.8484 0 0Zm5.7386 1.8395c-1.0748 -2.4075 0.7628 -1.316 0.2393 0.3943l-0.2393 -0.3943Zm-9.8976 -6.6004c-0.4804 -0.7906 -1.2748 -3.1086 -1.0188 -3.8169 0.2297 1.1533 2.4506 4.961 1.0877 1.5778 -1.5045 -2.8358 1.8003 0.9193 2.1405 1.628 0.1589 0.7029 -0.9293 -0.1924 -0.1928 1.4581 -1.3438 -1.8788 -0.7925 1.0374 -2.0166 -0.847Zm-3.0583 -2.1085c0.6991 1.26 0.1254 -1.8376 0 0Zm1.3758 0.4747c1.1121 1.9328 0.6561 -1.3868 0 0Zm-3.3105 -2.5606c-1.1385 -1.1332 -1.963 -2.1759 0.054 -0.703 0.7757 0.0297 -1.727 -2.3721 0.1871 -0.7628 2.0113 0.3666 0.9925 3.2995 -0.2411 1.4658Zm1.7385 -0.045c0.6618 -0.6561 0.3512 0.6451 0 0Zm1.071 0.3422c1.2169 0.7886 -1.004 -1.8788 0 0Zm-2.1271 -2.0319c-3.3106 -2.9483 4.1589 1.5399 0.5402 0.5455l-0.5402 -0.5455Zm9.4865 5.5103c-1.4337 -0.858 -0.3814 -6.0468 0.1086 -2.4989 1.3925 -0.4508 -0.077 1.8338 0.9604 1.8113 -0.1622 1.4409 -0.6278 1.9591 -1.069 0.6876Zm3.5086 2.075c0.2953 1.0695 0.1402 -1.5644 0 0Zm-0.6092 -0.6039c0.157 -0.6671 0.0149 0.7872 0 0Zm-11.7375 -7.95c-2.1271 -2.9348 6.1817 2.9684 1.3628 0.7442 -0.5029 -0.1326 -1.1102 -0.1795 -1.3628 -0.7442Zm6.7574 3.5819c0.4489 0.4091 -0.2015 -2.4712 0 0Zm5.1294 3.2914c0.3963 -1.4074 0.0302 0.9312 0 0Zm-11.5595 -7.9931c1.2638 -0.2708 5.2376 2.219 1.5887 0.7107 -0.4053 -0.4489 -1.271 -0.245 -1.5887 -0.7107Zm10.8547 5.4099c0.1349 -2.5271 0.7556 -1.5083 0.0057 0.3627l-0.0057 -0.3627Zm-9.9144 -6.2899c0.5159 -0.7556 -1.3686 -3.4153 0.2709 -0.9537 0.7087 0.5628 2.0505 0.9422 0.8656 1.1796 1.8635 1.6433 -0.4541 0.445 -1.1365 -0.2259Zm9.3779 5.5013c0.3556 -2.8789 0.3144 1.6859 0 0Zm-10.4546 -8.1596c0.3943 -0.1684 0.2091 0.525 0 0Zm2.4468 1.4562c1.1609 1.473 0.6297 -1.3217 0 0Zm6.8995 3.8374c0.1307 0.7384 -0.0057 -0.5063 0 0Zm-0.4 -0.8838c0.8915 1.2504 -0.9571 -2.3631 0 0Zm-0.5872 -1.55c0.546 1.2265 -0.1603 -0.9758 0 0Zm0.9571 -1.5553c-0.658 -1.1571 0.8302 -5.1031 0.9968 -2.6558 -0.6939 1.9064 -0.2001 2.9722 0.2818 0.4148 0.8939 -2.0112 -0.1923 3.9724 -1.2786 2.241Zm0.9834 -5.8673c0.2861 -0.3517 0.0636 0.424 0 0Zm-1.6429 32.363c0.0503 0.2148 -0.389 -0.3403 0 0Zm3.3833 1.7103c1.8821 0.4843 1.873 -0.2919 0.1718 -0.5235 -0.914 -0.8504 -3.802 -1.7534 -1.2169 -0.1048 0.1703 0.434 0.7106 0.4225 1.0451 0.6283Zm-6.6809 -4.438c1.0356 0.7743 3.9049 2.1908 1.4768 0.2958 0.8188 -0.9519 -1.5667 -1.4581 -0.7757 -2.0956 -2.0132 -1.2322 -1.5892 -1.1217 -0.1775 -1.0824 -2.419 -1.0825 0.3493 -1.0002 0.2187 -1.5553 -0.9327 -0.1832 -4.6342 -1.6452 -2.4564 0.1197 -2.2132 -1.1275 -0.5273 0.4206 -1.1963 0.2579 -2.264 -0.6168 2.0151 1.7237 -0.3589 1.1423 1.2973 1.0279 3.4938 2.6358 0.5474 1.0877 -0.3866 0.5589 2.1089 1.4059 2.7219 1.8299Zm3.5384 2.0338c4.3015 1.3854 -2.1104 -1.6955 0 0Zm18.1135 10.9729c0.056 -0.8542 -0.5871 0.7288 0 0Zm1.862 0.7833c0.9925 -0.9609 0.0412 1.5328 1.6448 -0.2354 0.0167 -1.2657 -0.0484 -2.0132 -1.8429 -0.4752 -0.4958 0.2752 -0.7159 1.4394 0.1981 0.7106Zm-29.5535 -18.56c-0.3048 -1.1983 -2.1366 -1.193 0 0Zm1.9869 1.3025c-0.7384 -1.2241 -2.6339 -1.1083 0 0Zm11.3112 6.8211c1.1049 0.9815 5.0715 0.7197 1.3404 0.1216 -0.5518 -0.8169 -3.5067 -0.6207 -1.3404 -0.1216Zm15.5467 9.6028c1.6993 -1.4265 -1.6466 0.6355 0 0Zm3.535 2.4281c0.011 -0.458 -0.7327 0.2 0 0Zm0.0057 -0.6412c1.8821 -1.9927 -1.8227 0.1177 0 0ZM19.9615 38.956c-1.6036 -2.2879 -0.9964 -3.3163 -2.5439 -5.1855 -0.2939 -1.4298 -2.6545 -4.6714 -1.2208 -1.2375 1.3122 2.0094 1.7012 5.1199 3.7647 6.423Zm36.6846 22.9736c3.4641 -2.2377 -1.4203 -0.9738 0 0Zm2.6435 1.0355c1.7346 -1.4882 -1.0973 -0.3105 0 0Zm-35.027 -22.4448c0.4957 -0.7384 -1.282 -0.0952 0 0Zm34.4752 21.738c1.6787 -1.0819 -0.3867 -0.9159 -0.3043 0.0991l0.3043 -0.0991ZM35.9551 47.8984c-0.0579 -0.7326 -0.8877 0.0617 0 0Zm1.4074 0.8097c-0.4484 -0.9049 -0.6877 0.1421 0 0Zm24.069 14.2814c2.1515 -1.5519 -1.3026 -0.2976 -0.4503 0.2953l0.4503 -0.2953Zm-0.8241 -0.3981c1.7534 -1.4677 -1.849 0.6503 0 0Zm4.2093 2.8018c1.1762 -0.7872 -1.4299 -0.2541 0 0ZM25.3412 39.9877c1.5758 0.3532 6.3014 3.8824 3.5144 0.245 -1.428 -0.4225 -0.5719 -3.9125 -2.0281 -3.2957 0.9777 1.6338 0.8035 2.3272 -1.249 1.2993 -2.5774 -1.26 -1.4485 0.6225 -0.9436 1.1422 -0.6882 0.157 0.9082 0.5963 0.7063 0.6092Zm-7.1833 -5.6731c0.2818 -1.1685 -2.6004 -6.4229 -1.361 -2.6338 0.4465 0.7943 0.4001 2.2989 1.361 2.6338Zm13.1856 8.1294c-0.0393 -0.0971 -0.8131 -0.6785 0 0Zm1.9983 0.4656c0 -1.2374 -2.2094 -0.5029 0 0Zm17.3283 10.9222c-0.3306 -0.8451 -1.3064 -0.0187 0 0Zm0.8317 0.6072c-0.1234 -0.4728 -0.4804 0.0919 0 0Zm6.868 4.3275c0.6599 -0.4877 -0.8245 -0.0632 0 0ZM21.745 35.2306c1.8897 -0.7312 -2.0247 -0.5216 0 0Zm27.3996 17.2608c-0.022 -1.2227 -1.2055 0.3048 0 0ZM20.9989 33.4901c1.2131 -0.4091 -1.1236 -0.2689 0 0Zm3.5216 1.7065c-0.0206 -0.4015 -0.3718 0.1536 0 0Zm42.9659 26.3478c1.5605 -0.3159 5.118 0.7943 5.6917 -0.413 -1.8955 -0.0469 -6.5554 -1.3385 -6.7761 0.3062l0.4149 0.0656 0.6695 0.0412ZM25.6403 35.4789c0.0282 -1.2394 -0.9662 -0.0464 0 0Zm-9.2602 -6.4243c-0.4206 -2.3611 -1.6002 -0.3575 0 0Zm2.2075 0.5551c0.0282 -0.759 -2.0209 -0.6824 0 0Zm1.2619 0.6206c-0.2843 0.3719 -0.3647 -0.2957 0 0Zm7.9423 5.0936c0.3742 -0.3441 -0.8858 -0.2541 0 0Zm-8.7817 -6.4919c-0.2148 -1.7835 -2.5592 -0.2675 0 0Zm-4.5293 -2.9387c-0.0637 -0.8226 -0.4412 0.3101 0 0Zm0.6747 -0.5082c-0.1101 -0.9762 -0.5795 0.123 0 0Zm3.7202 2.2205c1.5739 -0.6169 -2.866 -1.2787 -0.3216 -0.1159l0.3216 0.1159Zm49.8051 30.7646c1.0074 -0.9231 -1.2786 -0.2857 0 0Zm6.0172 3.1182c0.4039 -1.1925 -1.0169 0.1569 0 0ZM19.2566 25.656c0.1665 -1.1552 -1.2485 0.2297 0 0Zm-5.2955 -3.5479c-0.2843 -1.6299 -0.245 -4.492 2.475 -3.5254 -3.6302 0.7217 2.5142 4.5141 1.7385 1.5194 1.527 0.0751 2.987 -0.9025 2.185 0.5795 3.0095 -0.3307 5.094 -2.9401 8.0007 -2.5736 2.2634 -0.301 4.7384 -0.5273 7.178 -1.4394 2.0056 -0.1441 3.9365 -2.3032 2.8377 -3.5838 -2.7348 -0.2316 -5.5988 0.1106 -8.6213 0.7126 -3.3497 0.6953 -6.3928 2.0184 -9.7727 2.5869 -3.2956 0.4432 0.6619 1.2189 -0.2823 1.3926 -1.7179 0.5962 2.0505 0.9982 -0.2225 1.628 -1.4036 -0.2671 -2.8655 -0.7494 -2.2654 -2.23 -3.1555 0.4115 -5.9296 1.7198 -3.4359 4.9313l0.1852 0.0019Zm7.6063 -3.8733c0.7384 -2.7252 3.9628 2.2434 1.2112 0.3628 -0.3273 -0.247 -0.8695 -0.447 -1.2112 -0.3628Zm0.1436 -1.3217c1.0676 -0.7943 0.5666 0.447 0 0Zm1.3552 0.0225c0.0976 -1.2542 3.1052 0.6637 0.4958 0.4508l-0.4958 -0.4508Zm1.8543 -0.7455c0.6786 -0.793 0.1967 0.7024 0 0Zm0.4752 -0.3178c1.1289 -1.3552 6.3871 -0.8657 2.5382 -0.133 -1.0317 -0.7777 -1.8223 0.4579 -2.5382 0.133Zm6.8637 -1.058c3.4115 1.314 -0.1699 -3.7034 0 0Zm1.9481 -0.0115c0.7121 -1.8654 2.7645 -0.7494 0.3307 -0.3757 0.0521 0.2 -0.0728 0.9648 -0.3307 0.3757Zm-15.719 9.8961c2.1271 -1.303 -2.2582 -1.1308 0 0Zm1.5739 0.4355c0.7461 -0.7925 -1.6227 -0.3216 0 0Zm-4.6356 -3.288c1.215 -0.9346 -1.4394 -0.3551 0 0Zm62.8229 39.3017c0.0354 -1.0843 -0.9293 0.4877 0 0Zm-6.3837 -4.3575c0.1814 -1.2466 -0.8207 0.1086 0 0Zm8.1389 4.7782c1.6993 0.0057 5.1496 -0.5293 1.4524 -0.5274 -0.5814 0.09 -3.3813 0.0713 -1.4524 0.5274Zm-58.559 -37.1991c1.3758 -0.0933 2.1515 -1.516 -0.2675 -1.4356 -3.7479 -0.3867 3.3067 1.2844 -0.4805 0.8058 -0.5082 0.3364 0.7178 0.7236 0.748 0.6298Zm1.2112 0.6135c-0.1441 -0.8825 -0.4264 0.4689 0 0Zm1.4375 -3.8322c0.5962 -0.7403 -0.8264 -0.1981 0 0Zm-4.5763 -7.6475c2.4564 -0.8336 5.8138 -1.772 6.9728 0.4116 -1.1796 -1.4189 -0.4766 -2.8172 0.6374 -0.7403 1.5758 2.0993 2.3645 -0.9552 1.3399 -1.6601 1.1686 1.4505 2.4956 2.1367 0.7815 0.0919 1.8639 -2.24144 -3.7293 0.2934 -5.0003 0.267 -0.6111 0.2747 -6.3143 1.4543 -4.7313 1.6299Zm1.4395 -2.7549c1.4002 -1.05612 4.8432 0.6298 2.6338 -1.05086 -0.2167 -0.19046 -4.8375 1.27486 -2.6338 1.05086Zm5.105 0.211c1.6376 0.0412 -0.7063 -2.20219 1.2452 -1.18529 -0.3197 -1.04657 -2.2731 -1.24277 -3.2282 -1.66149 -0.5403 0.95708 1.0987 2.85978 1.983 2.84678Zm-4.2097 -4.63411c0.5666 -0.76805 -0.9944 0.39096 0 0Zm2.0864 0.49911c2.6411 -0.34933 -0.6733 -1.13652 -0.5331 -0.02775l0.5331 0.02775Zm-3.8957 -3.04684c-1.8601 -2.4281 3.4976 0.40771 1.6074 -2.13476 -1.5907 -1.265249 -3.1177 1.42652 -1.6074 2.13476ZM43.9051 16.6293c0.8527 -1.5107 -3.5197 -2.0376 -0.5738 -0.535 0.2709 0.09 0.2096 0.6394 0.5738 0.535Z" stroke-width="1"></path>
  <path fill="#000000" d="M26.5908 72.8936c-0.1884 0.7451 -0.3055 1.9951 -0.3493 3.7497 0 0.3449 -0.1553 0.5173 -0.4664 0.5173 -0.3113 0 -0.5279 -0.1505 -0.6506 -0.4503 -0.3333 -0.8113 -0.6491 -1.3772 -0.9502 -1.7001 -0.3552 -0.3772 -0.8275 -0.6053 -1.4165 -0.6829 -0.6331 -0.1005 -2.2105 -0.1502 -4.7325 -0.1502 -0.5774 0 -0.9558 0.0613 -1.133 0.1839 -0.1111 0.0774 -0.1665 0.2442 -0.1665 0.4999v7.5495c0 0.2557 0.1609 0.3772 0.4824 0.3668 0.9895 -0.0115 2.4224 -0.0788 4.2996 -0.2003 0.3668 -0.045 0.6145 -0.1641 0.7419 -0.3588 0.1286 -0.1943 0.2536 -0.6965 0.3751 -1.508 0.0773 -0.4445 0.3389 -0.6169 0.7834 -0.5162 0.3774 0.0777 0.5395 0.2501 0.4838 0.5162 -0.3114 1.5116 -0.4121 3.478 -0.301 5.9001 0.0118 0.2883 -0.1713 0.4444 -0.5496 0.4667 -0.3114 0.0334 -0.5058 -0.1334 -0.5834 -0.5002 -0.288 -1.3886 -0.8252 -2.1305 -1.6076 -2.2256 -0.7834 -0.0937 -2.0589 -0.1411 -3.825 -0.1411 -0.2 0 -0.2996 0.0717 -0.2996 0.2163v7.4998c0 0.5555 0.2047 0.9339 0.6157 1.133 0.3229 0.1668 1.0171 0.317 2.0831 0.4503 0.5452 0.0554 0.7834 0.2951 0.7176 0.7164 -0.0672 0.3668 -0.5555 0.5114 -1.4674 0.4338 -2.6331 -0.2116 -4.8054 -0.2 -6.5159 0.0338 -0.4782 0.0657 -0.7164 -0.1286 -0.7164 -0.5834 0 -0.2895 0.2382 -0.456 0.7164 -0.5001 1.0889 -0.1227 1.6328 -1.0785 1.6328 -2.8666V76.4765c0 -0.7324 -0.1306 -1.2962 -0.391 -1.6909 -0.2617 -0.3946 -0.7479 -0.7534 -1.4583 -1.0752 -0.4445 -0.2 -0.611 -0.472 -0.4999 -0.8168 0.0554 -0.2107 0.1446 -0.3277 0.2661 -0.3497 0.1111 -0.0334 0.4062 -0.0115 0.8829 0.067 0.7004 0.1111 2.3507 0.1668 4.95 0.1668 3.0671 0 5.7161 -0.0672 7.9501 -0.2003 0.744 -0.045 1.1167 0.0163 1.1167 0.1828 0 0.0454 -0.0056 0.0892 -0.0175 0.1334Z" stroke-width="1"></path>
  <path fill="#000000" d="M37.3983 94.0499c0 0.4444 -0.2501 0.6388 -0.7499 0.5831 -1.5324 -0.1446 -3.4327 -0.1227 -5.699 0.0661 -0.456 0.045 -0.7359 0.0334 -0.8423 -0.0323 -0.1055 -0.0673 -0.1576 -0.2501 -0.1576 -0.5511 0 -0.2661 0.3022 -0.4907 0.9075 -0.6747 0.6065 -0.1828 0.9084 -0.7303 0.9084 -1.6411V76.7174c0 -0.9004 -0.1307 -1.5614 -0.3911 -1.9839 -0.2616 -0.4222 -0.72 -0.7498 -1.3751 -0.9824 -0.3448 -0.1227 -0.5173 -0.2951 -0.5173 -0.5173 0 -0.3334 0.2501 -0.5834 0.7499 -0.7499 0.7558 -0.2445 1.5395 -0.6216 2.3507 -1.1333 0.6667 -0.4003 1.0891 -0.5994 1.266 -0.5994 0.411 0 0.6172 0.2824 0.6172 0.8495 0 -0.0439 -0.0222 0.5116 -0.0673 1.6665 -0.0323 1.0995 -0.0438 2.1827 -0.0323 3.25l0.0658 14.8822c0 0.6782 0.1668 1.1703 0.5001 1.4758 0.3333 0.3054 0.9061 0.5081 1.7164 0.6076 0.4998 0.0554 0.7499 0.2442 0.7499 0.5671Z" stroke-width="1"></path>
  <path fill="#000000" d="M52.4722 93.0673c0 0.2337 -0.4248 0.5857 -1.2743 1.0577 -0.8506 0.4723 -1.5311 0.7084 -2.0416 0.7084 -0.4341 0 -0.8169 -0.2107 -1.1502 -0.6332 -0.3333 -0.4222 -0.5674 -0.6328 -0.7004 -0.6328 -0.0996 0 -0.6272 0.2278 -1.5833 0.6826 -0.9547 0.456 -1.9164 0.6841 -2.8829 0.6841 -0.9107 0 -1.6725 -0.2672 -2.2834 -0.7996 -0.6666 -0.5893 -0.9999 -1.389 -0.9999 -2.4005 0 -1.9223 2.2001 -3.2997 6.6002 -4.1328 0.7546 -0.1446 1.1389 -0.4504 1.1493 -0.9167l0.0338 -1.0669c0.0669 -1.8219 -0.7387 -2.7326 -2.4168 -2.7326 -0.4779 0 -0.9303 0.4269 -1.3587 1.2823 -0.427 0.8565 -1.0415 1.3169 -1.8414 1.3842 -0.9108 0.088 -1.3668 -0.2951 -1.3668 -1.1505 0 -0.5336 0.6782 -1.1549 2.0334 -1.8668 1.4224 -0.744 2.7895 -1.1167 4.1005 -1.1167 2.2547 0 3.3714 1.0728 3.3495 3.2173l-0.0673 6.8654c-0.0103 0.7224 0.2954 1.0832 0.9167 1.0832 0.1227 0 0.3565 -0.0275 0.7001 -0.0832 0.3452 -0.0554 0.5452 -0.0833 0.6009 -0.0833 0.3218 0 0.4826 0.2175 0.4826 0.6504Zm-5.1327 -3.7995c0.0115 -0.278 -0.0534 -0.4619 -0.1923 -0.5499 -0.139 -0.0889 -0.3576 -0.1064 -0.6575 -0.0507 -2.6781 0.4779 -4.017 1.3504 -4.017 2.6168 0 1.2775 0.6942 1.9163 2.0832 1.9163 0.5555 0 1.1285 -0.1052 1.7164 -0.3158 0.6897 -0.2454 1.0334 -0.5393 1.0334 -0.8841l0.0338 -2.7326Z" stroke-width="1"></path>
  <path fill="#000000" d="M64.8624 91.1497c0 1.178 -0.4539 2.1146 -1.3588 2.8088 -0.9051 0.6945 -2.1412 1.0417 -3.7083 1.0417 -1.0438 0 -2.089 -0.1111 -3.1328 -0.3333 -0.9004 -0.2003 -1.4225 -0.3831 -1.5671 -0.5499 -0.0891 -0.1561 -0.133 -0.9164 -0.133 -2.2834 0 -0.5891 0.133 -0.8945 0.4003 -0.9164 0.2663 -0.0338 0.4942 0.1111 0.6829 0.4328 0.8332 1.4559 2.178 2.1839 4.0333 2.1839 1.5658 0 2.3495 -0.5451 2.3495 -1.6343 0 -0.4767 -0.1772 -0.8773 -0.5336 -1.199 -0.389 -0.3668 -1.1434 -0.795 -2.266 -1.2835 -1.6227 -0.7221 -2.7059 -1.3552 -3.2499 -1.9004 -0.5893 -0.5774 -0.8832 -1.3552 -0.8832 -2.3332 0 -1.2002 0.4607 -2.1329 1.3831 -2.7995 0.8553 -0.6448 1.9999 -0.9665 3.4327 -0.9665 0.9004 0 1.7223 0.0717 2.4674 0.2166 0.8 0.1445 1.2165 0.3217 1.25 0.5333 0.088 0.6216 0.272 1.522 0.5499 2.7003 0.0335 0.1434 -0.1229 0.2604 -0.4666 0.3493 -0.3668 0.0776 -0.611 0.0163 -0.7336 -0.1828 -0.8773 -1.434 -1.9884 -2.1504 -3.3332 -2.1504 -1.522 0 -2.2834 0.4885 -2.2834 1.4666 0 0.5448 0.2059 0.9777 0.6168 1.2995 0.3668 0.2779 1.2278 0.7119 2.5833 1.3009 1.4222 0.611 2.3886 1.1609 2.9003 1.6491 0.6666 0.6332 1 1.4838 1 2.5498Z" stroke-width="1"></path>
  <path fill="#000000" d="M84.4697 94.0662c0 0.3887 -0.2616 0.5949 -0.7837 0.6169 -0.7777 0.0115 -1.7951 0.0669 -3.0496 0.1665 -0.6225 0.1226 -1.0669 0.0453 -1.3333 -0.2326 -1.7557 -1.8888 -3.2451 -3.8668 -4.4673 -5.9336 -0.0995 -0.1772 -0.2269 -0.2664 -0.3831 -0.2664 -0.1887 0 -0.5161 0.1668 -0.9825 0.5001 -0.5232 0.2883 -0.7836 0.7001 -0.7836 1.2326 0 0.3783 0.0103 0.9223 0.0335 1.6342 0.0222 0.7105 0.1991 1.1769 0.5324 1.3991 0.2337 0.1564 0.7733 0.2779 1.6168 0.3671 0.522 0.0669 0.7836 0.2613 0.7836 0.5831 0 0.256 -0.0417 0.4145 -0.125 0.4746 -0.0832 0.0613 -0.3034 0.0753 -0.6586 0.0418 -1.1111 -0.0996 -2.9883 -0.0442 -5.6326 0.1665 -0.6667 0.0557 -1.0278 -0.0279 -1.0835 -0.2501 -0.022 -0.0773 -0.0335 -0.1884 -0.0335 -0.3333 0 -0.3437 0.3392 -0.6053 1.0174 -0.7822 0.611 -0.1564 0.9164 -0.8728 0.9164 -2.1504V76.7337c0 -0.9107 -0.0889 -1.5439 -0.2672 -1.8991 -0.2442 -0.456 -0.7558 -0.8115 -1.5336 -1.0672 -0.3656 -0.1215 -0.5496 -0.2939 -0.5496 -0.5162 0 -0.3229 0.2616 -0.573 0.7834 -0.7498 0.8334 -0.278 1.6272 -0.661 2.383 -1.1505 0.6112 -0.3994 0.9896 -0.5997 1.133 -0.5997 0.4562 0 0.6841 0.2883 0.6841 0.8669 0 -0.0785 -0.0057 0.4723 -0.0175 1.6494 -0.0104 0.8113 -0.016 1.9004 -0.016 3.2671l0.0335 10.4324c0 0.2892 0.0776 0.4329 0.2326 0.4329 0.1668 0 0.4225 -0.1437 0.7673 -0.4329 0.9224 -0.7223 2.0556 -1.6666 3.3993 -2.8333 0.2672 -0.2777 0.4002 -0.4999 0.4002 -0.6667 0 -0.2995 -0.45 -0.5114 -1.3492 -0.6328 -0.389 -0.0454 -0.573 -0.2616 -0.5511 -0.6507 0.0335 -0.3887 0.2281 -0.5555 0.5834 -0.4998 0.8008 0.1111 1.9676 0.1724 3.4996 0.184 1.0673 0.0104 2.1285 0.0163 3.1842 0.0163 0.3437 0.0116 0.5161 0.2163 0.5161 0.6169 0 0.3771 -0.272 0.583 -0.816 0.6168 -0.8565 0.0323 -1.6621 0.2267 -2.4164 0.5831 -1.0557 0.477 -2.1842 1.3161 -3.3842 2.5163 -0.0879 0.067 -0.1333 0.1502 -0.1333 0.2498 0 0.1552 0.1888 0.528 0.5674 1.117 1.3887 2.111 2.7 3.7047 3.9325 4.7831 0.7893 0.6773 1.5277 1.0163 2.2162 1.0163 0.5117 0 0.8287 0.0358 0.9502 0.1087 0.123 0.072 0.1843 0.264 0.1843 0.5742Z" stroke-width="1"></path>
</svg>