<svg xmlns="http://www.w3.org/2000/svg" fill="none" viewBox="0 0 96 96" id="Jwt-Icon--Streamline-Svg-Logos">
  <desc>
    Jwt Icon Streamline Icon: https://streamlinehq.com
  </desc>
  <path fill="#ffffff" d="M55.0973 26.286 55.0033 1h-14.1l0.094 25.286 7.05 9.682 7.05 -9.682Z" stroke-width="1"></path>
  <path fill="#ffffff" d="M40.9976 69.6201v25.38h14.1v-25.38l-7.05 -9.682 -7.05 9.682Z" stroke-width="1"></path>
  <path fill="#00f2e6" d="m55.0967 69.62 14.852 20.492 11.374 -8.272 -14.852 -20.492 -11.374 -3.666V69.62Z" stroke-width="1"></path>
  <path fill="#00f2e6" d="M40.9972 26.2859 26.0512 5.79395l-11.374 8.27195 14.852 20.492 11.468 3.666v-11.938Z" stroke-width="1"></path>
  <path fill="#00b9f1" d="m29.5291 34.5579 -24.06399 -7.802 -4.324 13.348 24.06399 7.896 11.374 -3.76 -7.05 -9.682Z" stroke-width="1"></path>
  <path fill="#00b9f1" d="m59.4209 51.666 7.05 9.682 24.064 7.802 4.324 -13.348L70.7949 48l-11.374 3.666Z" stroke-width="1"></path>
  <path fill="#d63aff" d="m70.7949 47.9999 24.064 -7.896 -4.324 -13.348 -24.064 7.802 -7.05 9.682 11.374 3.76Z" stroke-width="1"></path>
  <path fill="#d63aff" d="M25.2051 48 1.14111 55.802l4.324 13.348 24.06399 -7.802 7.05 -9.682L25.2051 48Z" stroke-width="1"></path>
  <path fill="#fb015b" d="M29.5292 61.348 14.6772 81.84l11.374 8.272 14.946 -20.492V57.682l-11.468 3.666Z" stroke-width="1"></path>
  <path fill="#fb015b" d="m66.4707 34.5579 14.852 -20.492 -11.374 -8.27195 -14.852 20.49195v11.938l11.374 -3.666Z" stroke-width="1"></path>
</svg>