<svg xmlns="http://www.w3.org/2000/svg" fill="none" viewBox="0 0 96 96" id="React-Query-Icon--Streamline-Svg-Logos">
  <desc>
    React Query Icon Streamline Icon: https://streamlinehq.com
  </desc>
  <path fill="#00435b" d="m59.0084 58.2218 -1.803 3.131c-0.5432 0.9431 -1.5487 1.5244 -2.6371 1.5244H40.7557c-1.0884 0 -2.0939 -0.5813 -2.6371 -1.5244l-1.8032 -3.131h22.693Zm5.0478 -8.7648 -3.1793 5.5203h-26.43l-3.1791 -5.5203h32.7884Zm-3.0625 -8.5709 3.0676 5.3266H31.2627l3.0675 -5.3266h26.6635Zm-6.4254 -8.1024c1.0884 0 2.0939 0.5813 2.6371 1.5244l1.9198 3.3335H36.1987l1.9199 -3.3335c0.5432 -0.9431 1.5487 -1.5244 2.6371 -1.5244h13.8126Z" stroke-width="1"></path>
  <path fill="#002b3b" d="M20.6529 31.3313c-1.5301 -7.4194 -1.8584 -13.11 -0.8694 -17.2421 0.5882 -2.4576 1.6636 -4.46246 3.2989 -5.90893 1.7264 -1.52709 3.9091 -2.27644 6.3616 -2.27644 4.046 0 8.2992 1.845 12.8446 5.34997 1.854 1.4297 3.7782 3.1529 5.7765 5.1706 0.1591 -0.2048 0.3389 -0.3979 0.5392 -0.5764 5.6497 -5.0347 10.4062 -8.16276 14.4745 -9.36886 2.419 -0.71714 4.6902 -0.78547 6.7584 -0.08945 2.1831 0.73469 3.9226 2.25339 5.1499 4.38061 2.0254 3.5107 2.5595 8.1238 1.8044 13.8197 -0.3078 2.3217 -0.834 4.8508 -1.5775 7.591 0.2805 0.0339 0.5617 0.0961 0.8401 0.1883 7.1682 2.3754 12.244 4.9299 15.317 7.8493 1.8284 1.7369 3.0223 3.6706 3.4539 5.8111 0.4556 2.2593 0.0114 4.5255 -1.2144 6.6511 -2.0217 3.5056 -5.7389 6.2705 -11.0346 8.4604 -2.1264 0.8793 -4.5323 1.6757 -7.2204 2.392 0.1227 0.2769 0.2178 0.571 0.2815 0.8796 1.5301 7.4193 1.8584 13.1099 0.8694 17.2421 -0.5882 2.4576 -1.6637 4.4624 -3.2989 5.9089 -1.7264 1.5271 -3.9091 2.2764 -6.3617 2.2764 -4.0459 0 -8.2992 -1.845 -12.8446 -5.35 -1.8737 -1.4448 -3.8191 -3.1895 -5.8403 -5.235 -0.208 0.3253 -0.4633 0.6276 -0.7653 0.8968 -5.6497 5.0346 -10.4062 8.1627 -14.4745 9.3688 -2.419 0.7171 -4.6902 0.7854 -6.7584 0.0894 -2.1831 -0.7347 -3.9226 -2.2534 -5.1499 -4.3806 -2.0254 -3.5107 -2.5595 -8.1237 -1.8044 -13.8197 0.3189 -2.4056 0.8723 -5.0339 1.6589 -7.889 -0.3074 -0.0311 -0.6162 -0.0961 -0.9215 -0.1973 -7.1682 -2.3755 -12.24399 -4.93 -15.31702 -7.8493 -1.82837 -1.7369 -3.02232 -3.6706 -3.45392 -5.8111 -0.455563 -2.2593 -0.01136 -4.5255 1.21448 -6.6511 2.02167 -3.5056 5.73891 -6.2705 11.03456 -8.4604 2.1898 -0.9056 4.6759 -1.7231 7.4614 -2.4558 -0.0992 -0.243 -0.1776 -0.4984 -0.2325 -0.7646Z" stroke-width="1"></path>
  <path fill="#ff4154" d="M70.6357 65.1418c0.7128 -0.1263 1.3957 0.3307 1.5549 1.0317l0.0087 0.0415 0.076 0.3945c2.4637 12.9531 0.7282 19.4297 -5.2067 19.4297 -5.8066 0 -13.1984 -5.5264 -22.1753 -16.5794 -0.1984 -0.2442 -0.3054 -0.5499 -0.3027 -0.8645 0.0065 -0.7329 0.5946 -1.3245 1.3223 -1.3404l0.0421 -0.0002 0.4727 0.0033c3.7776 0.0205 7.4499 -0.1112 11.017 -0.3951 4.2108 -0.3351 8.6078 -0.9088 13.191 -1.7211Zm-40.7582 -9.7913 0.0227 0.0384 0.2372 0.414c1.9009 3.3047 3.8814 6.4413 5.9414 9.4098 2.4261 3.4959 5.1543 7.0349 8.1847 10.617 0.4688 0.5542 0.4152 1.3767 -0.1136 1.8659l-0.0344 0.0308 -0.305 0.2624c-10.0264 8.5911 -16.5431 10.3061 -19.5503 5.1452 -2.9435 -5.0517 -1.8763 -14.2372 3.2016 -27.5564 0.1116 -0.2927 0.3213 -0.5376 0.5933 -0.6928 0.6358 -0.3629 1.4419 -0.1534 1.8224 0.4657ZM75.7236 36.237l0.0411 0.0134 0.3774 0.1303C88.518 40.6858 93.22 45.417 90.2479 50.5742c-2.9068 5.0438 -11.3571 8.7162 -25.351 11.0171 -0.3121 0.0513 -0.6323 -0.0084 -0.9049 -0.1687 -0.6439 -0.3785 -0.8591 -1.2074 -0.4805 -1.8514 2.0043 -3.4094 3.8095 -6.8018 5.4155 -10.1771 1.8215 -3.8281 3.5308 -7.937 5.128 -12.3267 0.2422 -0.6656 0.9535 -1.0271 1.6274 -0.8424l0.0412 0.012Zm-43.7162 -2.1675c0.6439 0.3785 0.8591 1.2074 0.4805 1.8514 -2.0043 3.4094 -3.8095 6.8018 -5.4155 10.1772 -1.8215 3.828 -3.5308 7.9369 -5.128 12.3267 -0.2471 0.6791 -0.9828 1.0416 -1.6686 0.8303l-0.0411 -0.0134 -0.3774 -0.1303C7.48136 54.8063 2.77941 50.0751 5.75147 44.918c2.90677 -5.0439 11.35713 -8.7163 25.35103 -11.0172 0.3121 -0.0513 0.6322 0.0084 0.9049 0.1687Zm39.7318 -21.2042c2.9435 5.0517 1.8763 14.2372 -3.2016 27.5564 -0.1116 0.2927 -0.3213 0.5376 -0.5933 0.6929 -0.6358 0.3628 -1.4419 0.1533 -1.8224 -0.4658l-0.0227 -0.0384 -0.2372 -0.414c-1.9009 -3.3047 -3.8814 -6.4413 -5.9414 -9.4098 -2.4261 -3.4958 -5.1543 -7.0349 -8.1847 -10.617 -0.4688 -0.5542 -0.4153 -1.3767 0.1136 -1.8659l0.0344 -0.0308 0.3049 -0.2624C62.2152 9.41945 68.732 7.7044 71.7392 12.8653ZM29.4379 9.79102c5.8067 0 13.1985 5.52648 22.1754 16.57938 0.1984 0.2442 0.3054 0.5499 0.3027 0.8645 -0.0065 0.7329 -0.5946 1.3245 -1.3223 1.3404l-0.0421 0.0003 -0.4727 -0.0034c-3.7776 -0.0205 -7.4499 0.1112 -11.017 0.3951 -4.2108 0.3352 -8.6078 0.9089 -13.191 1.7211 -0.7128 0.1263 -1.3958 -0.3306 -1.5549 -1.0316l-0.0087 -0.0416 -0.076 -0.3945c-2.4638 -12.9531 -0.7282 -19.42968 5.2066 -19.42968Z" stroke-width="1"></path>
  <path fill="#ffd94c" d="M41.8656 32.9536h11.5943c1.6956 0 3.2617 0.9069 4.1057 2.3775l5.8216 10.1439c0.8375 1.4593 0.8375 3.2534 0 4.7126l-5.8216 10.1439c-0.844 1.4706 -2.4101 2.3775 -4.1057 2.3775H41.8656c-1.6956 0 -3.2617 -0.9069 -4.1057 -2.3775l-5.8217 -10.1439c-0.8374 -1.4592 -0.8374 -3.2533 0 -4.7126l5.8217 -10.1439c0.844 -1.4706 2.4101 -2.3775 4.1057 -2.3775Zm9.8272 3.0617c1.6965 0 3.2633 0.9078 4.1069 2.3797l4.0596 7.0822c0.8358 1.4581 0.8358 3.2501 0 4.7082l-4.0596 7.0823c-0.8436 1.4718 -2.4104 2.3797 -4.1069 2.3797h-8.0602c-1.6965 0 -3.2632 -0.9079 -4.1069 -2.3797l-4.0596 -7.0823c-0.8358 -1.4581 -0.8358 -3.2501 0 -4.7082l4.0596 -7.0822c0.8437 -1.4719 2.4104 -2.3797 4.1069 -2.3797h8.0602Zm-1.9047 3.3486h-4.2508c-1.6948 0 -3.2602 0.906 -4.1046 2.3755l-2.1452 3.7336c-0.839 1.4603 -0.839 3.2564 0 4.7167l2.1452 3.7335c0.8444 1.4695 2.4098 2.3755 4.1046 2.3755h4.2508c1.6948 0 3.2603 -0.906 4.1046 -2.3755l2.1452 -3.7335c0.839 -1.4603 0.839 -3.2564 0 -4.7167l-2.1452 -3.7336c-0.8443 -1.4695 -2.4098 -2.3755 -4.1046 -2.3755Zm-1.8339 3.2052c1.6935 0 3.258 0.9047 4.1027 2.3724l0.3042 0.5284c0.8414 1.4618 0.8414 3.261 0 4.7228l-0.3042 0.5284c-0.8447 1.4678 -2.4092 2.3724 -4.1027 2.3724h-0.583c-1.6935 0 -3.2579 -0.9046 -4.1027 -2.3724l-0.3042 -0.5284c-0.8414 -1.4618 -0.8414 -3.261 0 -4.7228l0.3042 -0.5284c0.8448 -1.4677 2.4092 -2.3724 4.1027 -2.3724h0.583Zm-0.2907 3.1573c-0.7538 0 -1.4489 0.4012 -1.8252 1.0525 -0.3763 0.6511 -0.3763 1.4537 0 2.1049 0.3763 0.6512 1.0714 1.0524 1.8236 1.0524 0.7538 0 1.4489 -0.4012 1.8252 -1.0524 0.3763 -0.6512 0.3763 -1.4538 0 -2.1049 -0.3763 -0.6513 -1.0714 -1.0525 -1.8236 -1.0525Zm-17.0776 2.1049h3.7897Z" stroke-width="1"></path>
</svg>