<svg xmlns="http://www.w3.org/2000/svg" fill="none" viewBox="0 0 96 96" id="Redux--Streamline-Svg-Logos">
  <desc>
    Redux Streamline Icon: https://streamlinehq.com
  </desc>
  <path fill="#764abc" d="M66.1321 65.7041c3.4689 -0.3589 6.1005 -3.3494 5.9809 -6.9381 -0.1196 -3.5887 -3.1101 -6.4597 -6.6986 -6.4597h-0.2393c-3.7082 0.1196 -6.579 3.2298 -6.4594 6.9382 0.1196 1.7943 0.8373 3.3494 1.9139 4.426 -4.067 8.0148 -10.2872 13.8763 -19.6175 18.7809 -6.3398 3.3494 -12.9189 4.5457 -19.4979 3.7083 -5.3829 -0.7177 -9.5695 -3.1102 -12.20113 -7.0578 -3.82781 -5.8615 -4.18667 -12.2015 -0.95695 -18.5416 2.27278 -4.5457 5.86128 -7.8951 8.13408 -9.5699 -0.4785 -1.5551 -1.1962 -4.1868 -1.555 -6.1007C-2.40959 57.4501 -0.615307 74.4366 4.64793 82.4514c3.94742 5.9811 11.96187 9.6895 20.81367 9.6895 2.3924 0 4.7848 -0.2393 7.1772 -0.8374C47.95 88.3129 59.553 79.2216 66.1321 65.7041ZM87.185 50.8708c-9.091 -10.6464 -22.4884 -16.508 -37.7996 -16.508h-1.9139c-1.0766 -2.1532 -3.3493 -3.5887 -5.8613 -3.5887h-0.2393c-3.7081 0.1196 -6.579 3.2298 -6.4594 6.9382 0.1196 3.5887 3.1101 6.4596 6.6987 6.4596h0.2392c2.6316 -0.1196 4.9044 -1.7943 5.8614 -4.0672h2.1531c9.091 0 17.7036 2.6317 25.4788 7.7755 5.981 3.9476 10.2873 9.0914 12.6796 15.3118 2.0336 5.0242 1.9139 9.9288 -0.2392 14.1156 -3.3493 6.34 -8.9714 9.8091 -16.3878 9.8091 -4.7848 0 -9.3303 -1.4355 -11.7227 -2.5121 -1.3158 1.1962 -3.7081 3.1102 -5.3828 4.3064 5.1436 2.3925 10.4068 3.7084 15.4308 3.7084 11.4835 0 19.9764 -6.3401 23.2061 -12.6801 3.469 -6.9382 3.2297 -18.9005 -5.7417 -29.0685ZM26.4186 67.7377c0.1196 3.5887 3.1101 6.4597 6.6986 6.4597h0.2393c3.7082 -0.1196 6.579 -3.2299 6.4594 -6.9382 -0.1196 -3.5887 -3.1101 -6.4596 -6.6987 -6.4596h-0.2392c-0.2392 0 -0.5981 0 -0.8373 0.1196 -4.9044 -8.1344 -6.9379 -16.9865 -6.2202 -26.5564 0.4785 -7.1774 2.8708 -13.3978 7.0575 -18.5416 3.4689 -4.4261 10.1676 -6.57929 14.7131 -6.69891C60.2707 8.88304 65.6536 24.6733 66.0124 31.0134c1.5551 0.3588 4.1867 1.1962 5.981 1.7943C70.558 13.4287 58.5961 3.38037 47.1127 3.38037c-10.7657 0 -20.6941 7.77553 -24.6415 19.25933 -5.5025 15.3118 -1.914 30.0255 4.7847 41.6289 -0.5981 0.8374 -0.9569 2.1533 -0.8373 3.4691Z" stroke-width="1"></path>
</svg>