<svg xmlns="http://www.w3.org/2000/svg" fill="none" viewBox="0 0 96 96" id="Socket.Io--Streamline-Svg-Logos">
  <desc>
    Socket.io Streamline Icon: https://streamlinehq.com
  </desc>
  <path fill="#010101" d="M36.0967 2.53066c12.1624 -3.119147 25.604 -1.30151 36.3302 5.31827C85.9358 15.9273 94.7547 31.2089 94.9791 46.9393c0.4937 15.8875 -7.7867 31.6403 -21.0936 40.2797 -14.8103 9.9633 -35.298 10.3448 -50.4225 0.8751C8.04676 78.8938 -0.951649 60.3359 1.35966 42.5186 3.22218 23.6915 17.7633 7.08597 36.0967 2.53066Z" stroke-width="1"></path>
  <path fill="#ffffff" d="M34.2347 10.2274c22.9785 -9.20041 51.1631 7.7866 53.5417 32.4257 3.7026 22.1706 -14.6982 44.7003 -37.1605 45.3511C29.253 90.136 8.6083 72.027 8.00242 50.5744 6.40918 33.2059 17.8536 15.972 34.2347 10.2274Z" stroke-width="1"></path>
  <path fill="#010101" d="M36.5459 45.6155c10.2999 -8.415 20.3755 -17.1217 30.8998 -25.2898 -5.5202 8.4823 -11.1975 16.8524 -16.7178 25.3347 -4.7348 0.0224 -9.4696 0.0224 -14.182 -0.0449Z" stroke-width="1"></path>
  <path fill="#010101" d="M45.2519 50.3057c4.7573 0 9.4921 0 14.227 0.0673 -10.3673 8.3701 -20.3979 17.1441 -30.9447 25.2898 5.5202 -8.4823 11.1975 -16.8748 16.7177 -25.3571Z" stroke-width="1"></path>
</svg>