<svg xmlns="http://www.w3.org/2000/svg" fill="none" viewBox="0 0 96 96" id="Tauri--Streamline-Svg-Logos">
  <desc>
    Tauri Streamline Icon: https://streamlinehq.com
  </desc>
  <path fill="#ffc131" d="M64.4619 35.209c0 4.9403 -4.0049 8.9453 -8.9453 8.9453 -4.9404 0 -8.9453 -4.005 -8.9453 -8.9453 0 -4.9404 4.0049 -8.9453 8.9453 -8.9453 4.9404 0 8.9453 4.0049 8.9453 8.9453Z" stroke-width="1"></path>
  <path fill="#24c8db" d="M40.4727 51.8799c-4.9404 0 -8.9453 4.0049 -8.9453 8.9453 0 4.9404 4.0049 8.9453 8.9453 8.9453 4.9403 0 8.9453 -4.0049 8.9453 -8.9453 0 -4.9404 -4.005 -8.9453 -8.9453 -8.9453Z" stroke-width="1"></path>
  <path fill="#ffc131" d="M74.0585 63.8742c-3.5951 2.3241 -7.5951 3.9517 -11.7916 4.7979 1.2162 -3.4673 1.6196 -7.1677 1.1792 -10.8157 9.7651 -3.4137 16.2422 -12.7026 16.0698 -23.0457 -0.1725 -10.3432 -6.9557 -19.411 -16.8292 -22.4972 -9.8736 -3.08629 -20.6134 0.5041 -26.6458 8.9078 -4.5514 0.5121 -8.9805 1.8051 -13.0927 3.8221C27.4159 10.6289 40.8138 0.854885 55.9041 1.00163c15.0903 0.14675 28.2957 10.17947 32.4822 24.67817 4.1864 14.4987 -1.6384 30.0263 -14.3278 38.1944ZM23.3548 31.2645l8.3761 1.0165c0.19 -1.6175 0.5442 -3.2115 1.0572 -4.7573 -3.3132 0.7702 -6.4927 2.0311 -9.4333 3.7408Z" stroke-width="1"></path>
  <path fill="#24c8db" d="M21.8907 32.1579c3.6167 -2.3478 7.6453 -3.9896 11.8729 -4.8386 -1.2788 3.4668 -1.7381 7.1825 -1.3418 10.8564 -9.7306 3.4617 -16.1534 12.7626 -15.9439 23.0885 0.2094 10.3258 7.0041 19.3587 16.867 22.4229 9.8629 3.0643 20.58 -0.5278 26.604 -8.917 4.549 -0.4993 8.978 -1.7785 13.0927 -3.7814 -4.4786 14.3989 -17.8698 24.1568 -32.9484 24.009 -15.0786 -0.1479 -28.2759 -10.1665 -32.47139 -24.6504C3.42633 55.8634 9.22563 40.3421 21.8907 32.1579Z" stroke-width="1"></path>
</svg>