<svg xmlns="http://www.w3.org/2000/svg" fill="none" viewBox="0 0 96 96" id="Vitest--Streamline-Svg-Logos">
  <desc>
    Vitest Streamline Icon: https://streamlinehq.com
  </desc>
  <path fill="#fcc72b" d="M71.5416 31.124 49.0695 63.6156c-0.2382 0.3445 -0.5828 0.6026 -0.9814 0.735 -0.3986 0.1325 -0.8295 0.1312 -1.2273 -0.0018 -0.3977 -0.1337 -0.7407 -0.3931 -0.9769 -0.7382 -0.2361 -0.3457 -0.3526 -0.7586 -0.3315 -1.1759l0.8993 -17.9387 -14.5193 -3.0793c-0.3103 -0.0657 -0.5994 -0.2067 -0.8418 -0.4103 -0.2423 -0.2036 -0.4304 -0.4637 -0.5476 -0.7571 -0.1171 -0.2935 -0.1597 -0.6112 -0.124 -0.9252 0.0357 -0.3139 0.1485 -0.6144 0.3286 -0.8747L53.22 5.95767c0.2383 -0.34469 0.5828 -0.60269 0.9814 -0.73496 0.3987 -0.13226 0.8296 -0.13158 1.2274 0.00205 0.3978 0.13358 0.7408 0.39276 0.9769 0.73825 0.2361 0.34544 0.3526 0.75828 0.3315 1.17591l-0.8994 17.93898 14.5192 3.0789c0.3103 0.0658 0.5994 0.2067 0.842 0.4103 0.2425 0.2037 0.4303 0.4637 0.5472 0.7572 0.1175 0.2934 0.1598 0.6112 0.1244 0.9251 -0.0355 0.314 -0.1487 0.6142 -0.329 0.8746Z" stroke-width="1"></path>
  <path fill="#729b1b" d="M48.0087 90.8752c-0.5977 0.0006 -1.1896 -0.1163 -1.7418 -0.3452 -0.5522 -0.2288 -1.0538 -0.5646 -1.4758 -0.9875L23.5574 68.3104c-0.8494 -0.8538 -1.3255 -2.0098 -1.324 -3.2143 0.0016 -1.2045 0.4808 -2.3599 1.3326 -3.2112 0.8517 -0.8519 2.0066 -1.3314 3.2111 -1.3332 1.2047 -0.0013 2.3608 0.4745 3.2149 1.3239l18.0167 18.0147 39.2497 -39.2477c0.8556 -0.8419 2.0091 -1.3115 3.2093 -1.3066 1.2008 0.0049 2.3505 0.4839 3.1987 1.3326 0.8488 0.8488 1.3283 1.9986 1.3333 3.1989 0.0043 1.2003 -0.4652 2.354 -1.3072 3.2096L51.2256 89.5425c-0.422 0.4235 -0.9235 0.7587 -1.4755 0.9875 -0.552 0.2289 -1.1438 0.3458 -1.7414 0.3452Z" stroke-width="1"></path>
  <path fill="#729b1b" fill-opacity=".5" d="M47.9907 90.8752c0.5977 0.0006 1.1897 -0.1163 1.7419 -0.3452 0.5522 -0.2288 1.0537 -0.5646 1.4758 -0.9875L72.442 68.3104c0.8495 -0.8538 1.3258 -2.0098 1.3239 -3.2143 -0.0012 -1.2045 -0.4807 -2.3599 -1.3326 -3.2112 -0.8519 -0.8519 -2.0067 -1.3314 -3.2112 -1.3332 -1.2045 -0.0013 -2.3605 0.4745 -3.2149 1.3239L47.9907 79.8903 8.74116 40.6426c-0.85565 -0.8419 -2.00929 -1.3115 -3.20957 -1.3066 -1.20034 0.0049 -2.35013 0.4839 -3.19887 1.3326 -0.84877 0.8488 -1.32776 1.9986 -1.33268 3.1989 -0.004853 1.2003 0.46476 2.354 1.30659 3.2096L44.7738 89.5425c0.4221 0.4235 0.9235 0.7587 1.4755 0.9875 0.5521 0.2289 1.1439 0.3458 1.7414 0.3452Z" stroke-width="1"></path>
</svg>